<svg width="40" height="40" viewBox="0 0 40 40" fill="none" xmlns="http://www.w3.org/2000/svg">
<path id="Vector" d="M22.3525 0.595436C21.6285 0.204492 20.8205 0 20 0C19.1795 0 18.3715 0.204492 17.6475 0.595436L2.6475 8.6966C1.8477 9.12845 1.17887 9.77233 0.712535 10.5594C0.246202 11.3464 -9.06167e-05 12.247 2.50097e-08 13.1649V13.9598L16.7725 23.9141L20 22.0964L23.2275 23.9141L40 13.9598V13.1649C40.0001 12.247 39.7538 11.3464 39.2875 10.5594C38.8211 9.77233 38.1523 9.12845 37.3525 8.6966L22.3525 0.595436ZM40 16.894L25.7675 25.342L40 33.3469V16.894ZM39.8525 36.1621L20 24.9926L0.1475 36.1621C0.417509 37.2583 1.04185 38.2317 1.92117 38.9271C2.80049 39.6226 3.88426 40.0003 5 40H35C36.1157 40.0003 37.1995 39.6226 38.0788 38.9271C38.9581 38.2317 39.5825 37.2583 39.8525 36.1621ZM2.50097e-08 33.3494L14.2325 25.342L2.50097e-08 16.894V33.3494Z" fill="#8CE8E5"/>
</svg>
