<svg width="206" height="206" viewBox="0 0 206 206" fill="none" xmlns="http://www.w3.org/2000/svg">
<path id="Vector" fill-rule="evenodd" clip-rule="evenodd" d="M24.2747 6.56874C26.5274 4.31923 29.2324 2.5742 32.2105 1.44928C35.1886 0.324362 38.3718 -0.154752 41.549 0.0436896C44.7263 0.242131 47.8251 1.1136 50.6401 2.60033C53.4551 4.08707 55.922 6.15513 57.8774 8.66747L80.9873 38.3586C85.223 43.805 86.7165 50.8994 85.0428 57.5947L78.0004 85.7923C77.6363 87.2527 77.6559 88.7825 78.0575 90.2332C78.459 91.6838 79.2288 93.006 80.2921 94.0713L111.925 125.707C112.991 126.772 114.316 127.543 115.769 127.945C117.222 128.346 118.754 128.365 120.216 127.998L148.399 120.955C151.702 120.129 155.151 120.065 158.483 120.768C161.815 121.47 164.944 122.922 167.633 125.011L197.322 148.11C207.995 156.415 208.974 172.187 199.421 181.728L186.108 195.042C176.581 204.57 162.342 208.754 149.068 204.08C115.094 192.126 84.2481 172.675 58.8172 147.17C33.3164 121.741 13.867 90.8969 1.9115 56.9252C-2.7491 43.6633 1.43514 29.41 10.9623 19.8821L24.2747 6.56874Z" fill="#8CE8E5"/>
</svg>
