<svg xmlns="http://www.w3.org/2000/svg" viewBox="0 0 574.74 92.35"><defs><style>.cls-1{fill:#fff;}</style></defs><g id="Layer_2" data-name="Layer 2"><g id="Layer_1-2" data-name="Layer 1"><path class="cls-1" d="M76.92,14.07a46.05,46.05,0,0,0-14.33-9.7A44.8,44.8,0,0,0,33,2.43,45.22,45.22,0,0,0,13.16,14.07a44.54,44.54,0,0,0-7,9.15A46.26,46.26,0,0,0,1.61,34a45.38,45.38,0,0,0,0,24A45.61,45.61,0,0,0,6.12,68.7,45,45,0,0,0,22.29,84.87,45.33,45.33,0,0,0,33,89.38a45.34,45.34,0,0,0,24,0,46.08,46.08,0,0,0,10.78-4.51,44.54,44.54,0,0,0,9.15-7A45.26,45.26,0,0,0,88.56,58,44.9,44.9,0,0,0,86.63,28.4,46.2,46.2,0,0,0,76.92,14.07ZM45,83.28a36.1,36.1,0,0,1-14.47-2.94A37.71,37.71,0,0,1,10.65,60.42a37.08,37.08,0,0,1-1.6-24.35,38.55,38.55,0,0,1,3.77-8.95,37.53,37.53,0,0,1,5.86-7.59,38.31,38.31,0,0,1,7.58-5.9,37.22,37.22,0,0,1,8.9-3.79,37.4,37.4,0,0,1,19.77,0A37.85,37.85,0,0,1,81.15,36.07a37.09,37.09,0,0,1,0,19.76,37.22,37.22,0,0,1-3.79,8.9,38.31,38.31,0,0,1-5.9,7.58,37.53,37.53,0,0,1-7.59,5.86,38.65,38.65,0,0,1-8.94,3.77A36.44,36.44,0,0,1,45,83.28Z"/><path class="cls-1" d="M148.77,20.4A36.69,36.69,0,0,0,144,13.21a32.13,32.13,0,0,0-15.44-10A36.59,36.59,0,0,0,117.93,1.7H96.26l-.45.23-.68.33L95,2.31l-.09,0a3.36,3.36,0,0,0-1.47,3.08v80.9a3.75,3.75,0,1,0,7.49,0V70.62h17a36.17,36.17,0,0,0,10.65-1.48,33.33,33.33,0,0,0,8.67-4,31.51,31.51,0,0,0,6.75-6,37.31,37.31,0,0,0,4.77-7.2,35.23,35.23,0,0,0,2.86-7.84,34.76,34.76,0,0,0,.93-7.87,35.55,35.55,0,0,0-.93-7.93A34.91,34.91,0,0,0,148.77,20.4Zm-3.58,15.82a26.76,26.76,0,0,1-.74,6.07,28.93,28.93,0,0,1-2.21,6.16,27.3,27.3,0,0,1-3.72,5.63,25.58,25.58,0,0,1-5.26,4.64,26.15,26.15,0,0,1-6.84,3.15A29.35,29.35,0,0,1,117.93,63H101V9.18h17a28.8,28.8,0,0,1,8.47,1.18,27.09,27.09,0,0,1,6.87,3.17,23.82,23.82,0,0,1,5.24,4.64,28.36,28.36,0,0,1,5.94,11.89A27.32,27.32,0,0,1,145.19,36.22Z"/><path class="cls-1" d="M215.71,82.54H163.45V58.93h41.4a3.62,3.62,0,0,0,4-3.74,3.67,3.67,0,0,0-4-3.85h-41.4V9.18h51a3.61,3.61,0,0,0,3.85-3.77,3.61,3.61,0,0,0-3.85-3.77H159.7l-.27,0h-.31a3.19,3.19,0,0,0-1.51.38,3.35,3.35,0,0,0-1.27,1.29,4.07,4.07,0,0,0-.49,2.11v81a4.5,4.5,0,0,0,.48,2,3.06,3.06,0,0,0,2.81,1.71h56.57a3.78,3.78,0,1,0,0-7.55Z"/><path class="cls-1" d="M293.21,1.7a3.54,3.54,0,0,0-3.74,3.74v71.9L230.31,1.4l-.08-.11-.09-.09a4.25,4.25,0,0,0-1.25-.9,4,4,0,0,0-1.64-.3,3.39,3.39,0,0,0-3.41,3.74v82.6a3.6,3.6,0,0,0,3.86,3.75,3.55,3.55,0,0,0,3.74-3.75V15.05L290,90.83l.09.11.1.1a5.63,5.63,0,0,0,.95.77,4,4,0,0,0,2.16.54,3.47,3.47,0,0,0,3.61-3.11l0-.15V5.44A3.55,3.55,0,0,0,293.21,1.7Z"/><path class="cls-1" d="M368.79,1.7a3.54,3.54,0,0,0-3.74,3.74V51.37H308.72V5.44a3.75,3.75,0,0,0-7.49,0v80.9a3.75,3.75,0,1,0,7.49,0V59h56.33V86.34a3.55,3.55,0,0,0,3.74,3.75,3.6,3.6,0,0,0,3.86-3.75V5.44A3.6,3.6,0,0,0,368.79,1.7Z"/><path class="cls-1" d="M417.22,3.82A3.61,3.61,0,0,0,416,1.93a3.45,3.45,0,0,0-2.09-.69h-.68a3.37,3.37,0,0,0-3.09,2.1l0,0,0,0L376,84.94v0l0,0a4.28,4.28,0,0,0-.31,1.55,3.34,3.34,0,0,0,1.24,2.52,4.23,4.23,0,0,0,2.79,1h.26a2.8,2.8,0,0,0,2.22-1,6.52,6.52,0,0,0,.79-1.36v0l0,0,4.65-11.17h51.94l4.75,11.37a3.24,3.24,0,0,0,3,2.27,4.53,4.53,0,0,0,2.69-.87,3.22,3.22,0,0,0,1.51-2.65,4.13,4.13,0,0,0-.42-1.8Zm19.15,65.09H390.76l22.78-54.43Z"/><path class="cls-1" d="M502.64,11.2a50.56,50.56,0,0,0-13.12-7.58A42.77,42.77,0,0,0,473.93.79a43.86,43.86,0,0,0-12,1.64A44.9,44.9,0,0,0,451.16,7a46.52,46.52,0,0,0-9.11,7.09,44.6,44.6,0,0,0-10.71,17.23l-.26.78.31.75,2.1,5,2.57,6.16,1.52-6.51c.12-.52.24-1,.36-1.38a38.29,38.29,0,0,1,3.77-9,37.47,37.47,0,0,1,5.84-7.61,36.89,36.89,0,0,1,7.53-5.86A37.56,37.56,0,0,1,464,10a37.62,37.62,0,0,1,22.74.9,38.42,38.42,0,0,1,11,6.37,3.59,3.59,0,0,0,5.46-.29,4,4,0,0,0,1.14-2.73A3.73,3.73,0,0,0,502.64,11.2Z"/><path class="cls-1" d="M500.35,73.72a3.91,3.91,0,0,0-2.58,1,40.71,40.71,0,0,1-11,6.28,37.29,37.29,0,0,1-22.72.93,38.1,38.1,0,0,1-8.93-3.75l-.61-.36-5.77-3.64,2.63,6.3,2.14,5.13.32.76.74.36a45.64,45.64,0,0,0,7.41,2.76,44.66,44.66,0,0,0,12,1.6,43.55,43.55,0,0,0,15.57-2.76,49.63,49.63,0,0,0,13.1-7.5,3.58,3.58,0,0,0,1.72-3,4.15,4.15,0,0,0-1.07-2.68A3.7,3.7,0,0,0,500.35,73.72Z"/><path class="cls-1" d="M574.3,84.83l-.06-.14-.08-.13L540.8,28.3,564,8.34a3.54,3.54,0,0,0,1.39-2.79A3.91,3.91,0,0,0,564.26,3a3.65,3.65,0,0,0-2.76-1.4,3.88,3.88,0,0,0-2.43.93l0,0,0,0L514.15,41.23V5.44a3.74,3.74,0,1,0-7.48,0v80.9a3.74,3.74,0,1,0,7.48,0V51.13l20.72-17.82,32.75,55.15a3.54,3.54,0,0,0,3,2,4,4,0,0,0,2.75-1.13,3.55,3.55,0,0,0,1.33-2.67A4.74,4.74,0,0,0,574.3,84.83Z"/></g></g></svg>